# xmcd CD database file
#
# Track frame offsets:
#	150
#	18108
#	34703
#	50505
#	69863
#	84168
#	100070
#	121985
#	132353
#	147298
#	162693
#	181030
#	198718
#
# Disc length: 2829 seconds
#
# Revision: 0
# Processed by: cddbd v1.5.2PL0 Copyright (c) Steve Scherf et al.
# Submitted via: CDex 1.51
#
DISCID=a80b0b0d
DTITLE=Tom Doughty - Have A Taste Of This
DYEAR=2008
DGENRE=Blues
TTITLE0=Way Down By The River
TTITLE1=Journey Blues
TTITLE2=Louisiana 1927
TTITLE3=Delia
TTITLE4=Mr Jellyroll Baker
TTITLE5=Maggies Pies
TTITLE6=Nobodie's Fault
TTITLE7=Spanish Harlem Incident
TTITLE8=Zimbawe Blues
TTITLE9=Queen Of Tarts
TTITLE10=Hound Dog Blues
TTITLE11=One For My Baby
TTITLE12=Jalesar Ghanta
EXTD=YEAR: 2008
EXTT0=
EXTT1=
EXTT2=
EXTT3=
EXTT4=
EXTT5=
EXTT6=
EXTT7=
EXTT8=
EXTT9=
EXTT10=
EXTT11=
EXTT12=
PLAYORDER=
